<svg aria-hidden="true" style="position: absolute; width: 0; height: 0; overflow: hidden;" version="1.1" xmlns="http://www.w3.org/2000/svg" xmlns:xlink="http://www.w3.org/1999/xlink">
<defs>
<symbol id="icon-desktop-brain" viewBox="0 0 32 32">
<path d="M9.12 6.317c0.146-0.731 0.499-1.405 1.017-1.94s1.181-0.91 1.907-1.079c0.726-0.169 1.485-0.125 2.187 0.127s1.316 0.7 1.769 1.292c0.453-0.592 1.067-1.040 1.769-1.292s1.461-0.296 2.187-0.127c0.726 0.169 1.388 0.543 1.907 1.079s0.872 1.209 1.017 1.94l0.2 1.003 0.65 0.13c0.978 0.196 1.859 0.725 2.491 1.497s0.979 1.739 0.979 2.737v0.317c0 1.162-0.496 2.208-1.288 2.939 0.967 0.479 1.761 1.248 2.272 2.199s0.712 2.038 0.576 3.109c-0.135 1.071-0.601 2.073-1.332 2.868s-1.692 1.341-2.748 1.564l-0.059 0.296c-0.184 0.922-0.638 1.769-1.304 2.434s-1.513 1.117-2.436 1.3c-0.923 0.183-1.879 0.088-2.748-0.272s-1.611-0.97-2.133-1.753c-0.522 0.782-1.265 1.392-2.134 1.753s-1.825 0.455-2.748 0.272c-0.923-0.183-1.77-0.635-2.436-1.3s-1.119-1.512-1.304-2.434l-0.059-0.296c-1.056-0.223-2.017-0.77-2.748-1.564s-1.197-1.797-1.332-2.868c-0.135-1.071 0.066-2.158 0.576-3.109s1.305-1.72 2.272-2.199c-0.406-0.374-0.73-0.829-0.952-1.335s-0.336-1.052-0.336-1.604v-0.317c0-0.998 0.346-1.965 0.979-2.737s1.513-1.301 2.491-1.497l0.65-0.128 0.2-1.005zM23.2 16c-0.212 0-0.416-0.084-0.566-0.234s-0.234-0.354-0.234-0.566c0-0.212 0.084-0.416 0.234-0.566s0.354-0.234 0.566-0.234c0.637 0 1.247-0.253 1.697-0.703s0.703-1.061 0.703-1.697v-0.317c0-1.296-0.914-2.41-2.184-2.664l-1.173-0.235c-0.155-0.031-0.297-0.107-0.409-0.219s-0.188-0.254-0.219-0.409l-0.306-1.526c-0.11-0.555-0.422-1.050-0.877-1.387s-1.018-0.493-1.582-0.437c-0.563 0.056-1.085 0.32-1.465 0.74s-0.589 0.966-0.587 1.532v16.965c0.001 0.782 0.293 1.537 0.819 2.116s1.248 0.943 2.027 1.020c0.779 0.077 1.558-0.138 2.187-0.603s1.063-1.147 1.218-1.914l0.165-0.819c0.031-0.155 0.107-0.297 0.219-0.409s0.254-0.188 0.409-0.219l0.466-0.094c0.873-0.177 1.649-0.672 2.178-1.389s0.773-1.604 0.686-2.49c-0.088-0.886-0.501-1.709-1.16-2.308s-1.517-0.932-2.407-0.935h-0.405zM15.2 22.4v-15.325c0.001-0.566-0.208-1.112-0.588-1.532s-0.902-0.683-1.465-0.739c-0.563-0.056-1.127 0.1-1.581 0.438s-0.767 0.832-0.877 1.387l-0.304 1.526c-0.031 0.155-0.107 0.297-0.219 0.409s-0.254 0.188-0.409 0.218l-1.173 0.235c-0.616 0.124-1.17 0.457-1.568 0.943s-0.616 1.095-0.616 1.723v0.317c0 0.636 0.253 1.247 0.703 1.697s1.060 0.703 1.697 0.703c0.212 0 0.416 0.084 0.566 0.234s0.234 0.354 0.234 0.566c0 0.212-0.084 0.416-0.234 0.566s-0.354 0.234-0.566 0.234h-0.403c-0.891 0.003-1.749 0.336-2.408 0.935s-1.073 1.421-1.161 2.308 0.156 1.774 0.685 2.491c0.529 0.717 1.305 1.212 2.178 1.389l0.466 0.094c0.155 0.031 0.297 0.107 0.408 0.219s0.188 0.254 0.219 0.409l0.165 0.819c0.155 0.767 0.589 1.449 1.218 1.914s1.409 0.68 2.187 0.603c0.779-0.077 1.501-0.441 2.027-1.020s0.818-1.334 0.819-2.116v-1.643z"></path>
</symbol>
<symbol id="icon-desktop-design" viewBox="0 0 32 32">
<path d="M8.054 3.409c0.291 0.133 0.48 0.42 0.487 0.739 0.027 1.188 0.447 1.858 0.93 2.527l0.135 0.185c0.467 0.634 1.061 1.441 1.061 2.638 0 0.572-0.134 1.136-0.391 1.648s-0.63 0.955-1.090 1.296c0.425 0.375 0.721 0.847 0.93 1.337 0.467 1.099 0.551 2.443 0.551 3.519 0 1.76-0.272 4.453-0.771 6.72-0.249 1.129-0.563 2.2-0.953 3.009-0.193 0.402-0.427 0.785-0.715 1.077-0.29 0.295-0.701 0.563-1.225 0.563s-0.935-0.267-1.225-0.562c-0.288-0.293-0.522-0.675-0.716-1.077-0.391-0.809-0.707-1.88-0.955-3.009-0.5-2.267-0.773-4.96-0.773-6.72 0-1.077 0.085-2.421 0.554-3.52 0.209-0.49 0.505-0.96 0.929-1.334-0.46-0.341-0.834-0.785-1.092-1.297s-0.392-1.077-0.392-1.65c0-0.877 0.112-1.719 0.706-2.7 0.564-0.932 1.538-1.946 3.137-3.273 0.121-0.1 0.267-0.164 0.422-0.185s0.313 0.003 0.456 0.068zM5.465 7.662c-0.387 0.637-0.465 1.15-0.465 1.837 0 0.53 0.211 1.039 0.586 1.414s0.884 0.586 1.414 0.586 1.039-0.211 1.414-0.586c0.375-0.375 0.586-0.884 0.586-1.414 0-0.631-0.274-1.010-0.777-1.705l-0.103-0.143c-0.358-0.497-0.747-1.081-0.993-1.872-0.855 0.787-1.359 1.385-1.661 1.884zM5.421 14.431c-0.329 0.77-0.421 1.825-0.421 2.867 0 1.634 0.259 4.208 0.734 6.36 0.239 1.081 0.521 2.007 0.829 2.643 0.155 0.32 0.295 0.523 0.404 0.633 0.013 0.014 0.025 0.025 0.036 0.035 0.011-0.009 0.023-0.020 0.036-0.034 0.109-0.111 0.249-0.313 0.403-0.633 0.307-0.637 0.589-1.562 0.827-2.643 0.474-2.153 0.732-4.727 0.732-6.361 0-1.042-0.091-2.097-0.418-2.867-0.159-0.373-0.356-0.638-0.588-0.811-0.223-0.166-0.531-0.287-0.991-0.287s-0.769 0.121-0.993 0.287c-0.232 0.173-0.43 0.44-0.589 0.812zM14 6.333c-0.942-0.001-1.872 0.209-2.723 0.613-0.182-0.304-0.382-0.598-0.597-0.879l-0.127-0.171c-0.080-0.11-0.157-0.221-0.231-0.335 1.137-0.589 2.398-0.896 3.679-0.894 4.193 0 7.633 3.227 7.973 7.333h2.527c1.105 0 2.165 0.439 2.946 1.22s1.22 1.841 1.22 2.946v7c0 1.105-0.439 2.165-1.22 2.946s-1.841 1.22-2.946 1.22h-7c-1.105 0-2.165-0.439-2.946-1.22s-1.22-1.841-1.22-2.946v-2.527c-0.512-0.042-1.019-0.134-1.513-0.273 0.060-0.566 0.106-1.134 0.139-1.702 0.445 0.152 0.907 0.253 1.375 0.301v-2.799c0-1.105 0.439-2.165 1.22-2.946s1.841-1.22 2.946-1.22h2.799c-0.333-3.185-3.026-5.667-6.299-5.667zM24.5 13.667h-2.562c-0.223 1.762-1.025 3.401-2.281 4.657s-2.894 2.059-4.657 2.281v2.562c0 0.663 0.263 1.299 0.732 1.768s1.105 0.732 1.768 0.732h7c0.663 0 1.299-0.263 1.768-0.732s0.732-1.105 0.732-1.768v-7c0-0.663-0.263-1.299-0.732-1.768s-1.105-0.732-1.768-0.732zM15 18.921c1.317-0.212 2.534-0.833 3.478-1.777s1.565-2.16 1.777-3.478h-2.755c-0.663 0-1.299 0.263-1.768 0.732s-0.732 1.105-0.732 1.768v2.755z"></path>
</symbol>
<symbol id="icon-desktop-puzzle" viewBox="0 0 32 32">
<path d="M13.332 2.125c-0.727 0-1.444 0.174-2.089 0.509s-1.202 0.817-1.622 1.41c-0.42 0.593-0.691 1.28-0.791 2-0.068 0.486 0.057 0.965 0.146 1.445-1.201 0.013-2.29 0.026-3.119 0.17-0.984 0.171-1.787 0.51-2.405 1.128s-0.955 1.419-1.126 2.403c-0.171 0.984-0.199 2.171-0.205 3.7 0 0.001 0 0.002 0 0.003 0 0.301 0.244 0.546 0.546 0.546 0.065 0 0.128-0.011 0.186-0.032l-0.004 0.001c0.521-0.183 1.078-0.238 1.625-0.162s1.066 0.283 1.517 0.602c0.451 0.319 0.819 0.741 1.072 1.232s0.386 1.034 0.386 1.587c0 0.552-0.133 1.096-0.386 1.587s-0.622 0.914-1.072 1.233c-0.451 0.319-0.97 0.526-1.517 0.602s-1.104 0.020-1.625-0.163c-0.054-0.020-0.117-0.031-0.182-0.031-0.301 0-0.546 0.244-0.546 0.546 0 0.001 0 0.002 0 0.003v-0c0.005 1.529 0.033 2.716 0.205 3.7s0.508 1.787 1.126 2.405c0.618 0.618 1.421 0.955 2.405 1.126s2.171 0.199 3.7 0.205c0.001 0 0.002 0 0.003 0 0.301 0 0.546-0.244 0.546-0.546 0-0.065-0.011-0.128-0.032-0.186l0.001 0.004c-0.183-0.521-0.24-1.078-0.163-1.625s0.283-1.066 0.602-1.517c0.319-0.451 0.742-0.819 1.233-1.072s1.034-0.386 1.587-0.386c0.552 0 1.096 0.133 1.587 0.386s0.912 0.622 1.232 1.072c0.319 0.451 0.526 0.97 0.602 1.517s0.021 1.104-0.162 1.625c-0.020 0.054-0.031 0.117-0.031 0.182 0 0.301 0.244 0.546 0.546 0.546 0 0 0.001 0 0.001 0h-0c1.529-0.005 2.718-0.033 3.702-0.205s1.785-0.508 2.403-1.126c0.618-0.618 0.956-1.421 1.128-2.405 0.144-0.829 0.158-1.918 0.17-3.119 0.48 0.089 0.958 0.214 1.445 0.146 0.72-0.1 1.407-0.371 2-0.791s1.076-0.976 1.41-1.622c0.334-0.646 0.509-1.363 0.509-2.090s-0.174-1.442-0.509-2.088c-0.334-0.646-0.817-1.202-1.41-1.622s-1.28-0.691-2-0.791c-0.486-0.068-0.964 0.057-1.443 0.146-0.013-1.202-0.027-2.29-0.172-3.119-0.171-0.984-0.51-1.787-1.128-2.405s-1.421-0.957-2.405-1.128c-0.83-0.144-1.918-0.159-3.119-0.172 0.089-0.479 0.214-0.957 0.146-1.443-0.1-0.72-0.371-1.407-0.791-2s-0.977-1.076-1.622-1.41-1.361-0.509-2.088-0.509zM13.332 3.216c0.553 0 1.096 0.132 1.587 0.386s0.914 0.621 1.233 1.072c0.319 0.451 0.526 0.973 0.602 1.52s0.019 1.104-0.165 1.625c-0.020 0.054-0.031 0.117-0.031 0.182 0 0.301 0.243 0.545 0.544 0.546h0c1.517 0.005 2.666 0.038 3.518 0.186s1.387 0.391 1.82 0.824c0 0 0 0 0 0.001s0 0.001 0 0.001v-0c0.433 0.433 0.675 0.967 0.824 1.82s0.182 2.001 0.188 3.518c0.001 0.301 0.245 0.544 0.546 0.544 0.065 0 0.128-0.011 0.186-0.032l-0.004 0.001c0.521-0.184 1.078-0.24 1.625-0.163s1.069 0.282 1.52 0.601c0.451 0.319 0.819 0.742 1.072 1.233s0.386 1.034 0.386 1.587-0.132 1.097-0.386 1.588c-0.254 0.491-0.621 0.914-1.072 1.233s-0.973 0.525-1.52 0.601c-0.547 0.076-1.104 0.020-1.625-0.163-0.054-0.020-0.117-0.031-0.182-0.031-0.3 0-0.544 0.243-0.546 0.542v0c-0.005 1.517-0.039 2.666-0.188 3.518s-0.391 1.388-0.824 1.821c-0.433 0.433-0.967 0.675-1.82 0.824-0.709 0.124-1.766 0.142-2.926 0.156 0.078-0.46 0.204-0.916 0.139-1.381-0.101-0.72-0.373-1.404-0.793-1.997s-0.975-1.077-1.621-1.41c-0.645-0.334-1.362-0.509-2.088-0.509s-1.443 0.175-2.088 0.509c-0.645 0.334-1.202 0.818-1.622 1.41s-0.691 1.278-0.791 1.997c-0.065 0.465 0.059 0.921 0.138 1.381-1.16-0.014-2.216-0.033-2.925-0.156-0.853-0.149-1.388-0.391-1.821-0.824s-0.675-0.968-0.824-1.821c-0.124-0.709-0.142-1.765-0.156-2.925 0.46 0.078 0.916 0.203 1.381 0.138 0.72-0.101 1.404-0.371 1.997-0.791s1.077-0.977 1.411-1.622c0.334-0.645 0.509-1.362 0.509-2.088s-0.175-1.443-0.509-2.088c-0.334-0.645-0.818-1.201-1.41-1.621s-1.278-0.692-1.997-0.793c-0.465-0.065-0.921 0.061-1.381 0.139 0.014-1.16 0.033-2.217 0.156-2.926 0.149-0.853 0.391-1.387 0.824-1.82s0.968-0.675 1.821-0.824c0.853-0.149 2.001-0.182 3.518-0.188 0.3-0.002 0.543-0.245 0.543-0.546 0-0.065-0.011-0.128-0.032-0.186l0.001 0.004c-0.184-0.521-0.239-1.078-0.163-1.625s0.282-1.069 0.601-1.52c0.319-0.451 0.742-0.819 1.233-1.072s1.036-0.386 1.588-0.386z"></path>
</symbol>
<symbol id="icon-desktop-facebook" viewBox="0 0 32 32">
<path d="M19.071 1.481c-2.019 0-3.956 0.794-5.387 2.209s-2.236 3.34-2.236 5.346v3.111h-3.152c-0.491 0-0.889 0.398-0.889 0.889v0 5.333c0 0.491 0.398 0.889 0.889 0.889h3.152v9.778c0 0.491 0.398 0.889 0.889 0.889h5.387c0.491-0 0.889-0.398 0.889-0.889v0-9.778h3.152c0 0 0 0 0 0 0.414 0 0.761-0.283 0.861-0.665l0.001-0.006 1.347-5.333c0.017-0.065 0.027-0.14 0.027-0.217 0-0.491-0.398-0.889-0.889-0.889-0 0-0 0-0 0h-4.499v-3.111c0-0.116 0.047-0.227 0.132-0.311s0.202-0.133 0.326-0.133h4.040c0.491-0 0.889-0.398 0.889-0.889v0-5.333c-0-0.491-0.398-0.889-0.889-0.889v0zM19.071 3.259h3.152v3.556h-3.152c-0.59 0-1.158 0.233-1.578 0.648s-0.659 0.983-0.659 1.574v4c0 0.491 0.398 0.889 0.889 0.889h4.247l-0.898 3.556h-3.348c-0.491 0-0.889 0.398-0.889 0.889v0 9.778h-3.609v-9.778c-0-0.491-0.398-0.889-0.889-0.889h-3.152v-3.556h3.152c0.491-0 0.889-0.398 0.889-0.889v0-4c0-1.53 0.613-2.998 1.708-4.082s2.584-1.696 4.137-1.696z"></path>
</symbol>
<symbol id="icon-desktop-mail" viewBox="0 0 32 32">
<path d="M21.267 29.333l-5.667-5.667 1.867-1.867 3.8 3.8 7.533-7.533 1.867 1.867-9.4 9.4zM16 14.667l10.667-6.667h-21.333l10.667 6.667zM16 17.333l-10.667-6.667v13.333h6.867l2.667 2.667h-9.533c-0.733 0-1.361-0.261-1.883-0.783s-0.783-1.15-0.784-1.884v-16c0-0.733 0.261-1.361 0.784-1.883s1.15-0.783 1.883-0.784h21.333c0.733 0 1.361 0.261 1.884 0.784s0.784 1.15 0.783 1.883v5.8l-2.667 2.667v-5.8l-10.667 6.667z"></path>
</symbol>
<symbol id="icon-desktop-head" viewBox="0 0 32 32">
<path d="M16 18c0.19 0 0.349-0.064 0.476-0.192s0.191-0.286 0.191-0.475v-6.667c0-0.189-0.064-0.348-0.192-0.475s-0.287-0.191-0.476-0.192c-0.189-0.001-0.348 0.063-0.475 0.192s-0.191 0.287-0.191 0.475v6.667c0 0.189 0.064 0.348 0.192 0.475s0.287 0.191 0.476 0.192zM20.001 16c0.189 0 0.348-0.064 0.475-0.192s0.191-0.286 0.191-0.475v-3.333c0-0.189-0.064-0.348-0.192-0.475s-0.287-0.191-0.476-0.192c-0.189-0.001-0.348 0.063-0.475 0.192s-0.191 0.287-0.191 0.475v3.333c0 0.189 0.064 0.348 0.192 0.475s0.287 0.191 0.476 0.192zM12.001 15.333c0.189 0 0.348-0.064 0.475-0.192s0.191-0.286 0.191-0.475v-2.667c0-0.189-0.064-0.348-0.192-0.475s-0.287-0.191-0.476-0.192c-0.189-0.001-0.348 0.063-0.475 0.192s-0.191 0.287-0.191 0.475v2.667c0 0.189 0.064 0.348 0.192 0.475s0.287 0.191 0.476 0.192zM9.333 22.984c-1.267-1.156-2.25-2.454-2.949-3.896s-1.050-2.922-1.051-4.44c0-2.957 1.037-5.472 3.111-7.543s4.593-3.106 7.556-3.105c2.402 0 4.572 0.731 6.512 2.193s3.197 3.351 3.773 5.667l1.381 5.471c0.089 0.338 0.026 0.645-0.189 0.923-0.215 0.276-0.502 0.413-0.861 0.413h-2.616v4.513c0 0.592-0.211 1.099-0.633 1.52s-0.929 0.632-1.52 0.633h-3.18v2c0 0.189-0.064 0.348-0.192 0.475s-0.287 0.191-0.476 0.192c-0.189 0.001-0.348-0.063-0.475-0.192s-0.191-0.287-0.191-0.475v-2.244c0-0.317 0.103-0.578 0.309-0.783s0.462-0.307 0.768-0.307h3.436c0.239 0 0.436-0.077 0.589-0.231s0.231-0.35 0.231-0.589v-4.769c0-0.306 0.103-0.562 0.309-0.768s0.462-0.309 0.768-0.309h2.523l-1.267-5.167c-0.511-2.039-1.609-3.688-3.293-4.947-1.682-1.258-3.584-1.887-5.707-1.887-2.578 0-4.778 0.902-6.6 2.707-1.822 1.806-2.733 4.002-2.733 6.587 0 1.328 0.272 2.59 0.817 3.787s1.316 2.26 2.316 3.189l0.867 0.797v4.933c0 0.189-0.064 0.348-0.192 0.475s-0.287 0.191-0.476 0.192c-0.189 0.001-0.348-0.063-0.475-0.192s-0.191-0.287-0.191-0.475v-4.349z"></path>
</symbol>
<symbol id="icon-desktop-phone" viewBox="0 0 32 32">
<path d="M21.538 4.308h-11.077c-0.49 0-0.959 0.194-1.305 0.541s-0.541 0.816-0.541 1.305v19.692c0 0.49 0.194 0.959 0.541 1.305s0.816 0.541 1.305 0.541h11.077c0.49 0 0.959-0.194 1.305-0.541s0.541-0.816 0.541-1.305v-19.692c0-0.49-0.195-0.959-0.541-1.305s-0.816-0.541-1.305-0.541zM9.846 6.154c0-0.163 0.065-0.32 0.18-0.435s0.272-0.18 0.435-0.18h11.077c0.163 0 0.32 0.065 0.435 0.18s0.18 0.272 0.18 0.435v19.692c0 0.163-0.065 0.32-0.18 0.435s-0.272 0.18-0.435 0.18h-11.077c-0.163 0-0.32-0.065-0.435-0.18s-0.18-0.272-0.18-0.435v-19.692z"></path>
<path d="M16 25.846c-0.326 0-0.639-0.13-0.87-0.36s-0.361-0.544-0.361-0.87 0.13-0.639 0.361-0.87c0.231-0.231 0.544-0.36 0.87-0.36s0.639 0.13 0.87 0.36c0.231 0.231 0.36 0.544 0.36 0.87s-0.13 0.639-0.36 0.87c-0.231 0.231-0.544 0.36-0.87 0.36z"></path>
<path d="M16 30.154c-7.817 0-14.154-6.337-14.154-14.154s6.337-14.154 14.154-14.154c7.817 0 14.154 6.337 14.154 14.154s-6.337 14.154-14.154 14.154zM16 31.385c8.497 0 15.385-6.887 15.385-15.385s-6.887-15.385-15.385-15.385c-8.497 0-15.385 6.887-15.385 15.385s6.887 15.385 15.385 15.385z"></path>
</symbol>
<symbol id="icon-desktop-touch" viewBox="0 0 32 32">
<path d="M7.5 9.5c0-1.857 0.737-3.637 2.050-4.95s3.093-2.050 4.95-2.050c1.857 0 3.637 0.737 4.95 2.050s2.050 3.093 2.050 4.95c0 0.133-0.053 0.26-0.146 0.354s-0.221 0.146-0.354 0.146c-0.133 0-0.26-0.053-0.354-0.146s-0.146-0.221-0.146-0.354c0-1.591-0.632-3.117-1.757-4.243s-2.651-1.757-4.243-1.757c-1.591 0-3.117 0.632-4.243 1.757s-1.757 2.651-1.757 4.243c0 0.133-0.053 0.26-0.146 0.354s-0.221 0.146-0.354 0.146c-0.133 0-0.26-0.053-0.354-0.146s-0.146-0.221-0.146-0.354zM24.5 15.5c-0.743-0.001-1.459 0.275-2.009 0.774-0.043-0.558-0.241-1.093-0.571-1.544s-0.781-0.801-1.3-1.010c-0.519-0.209-1.087-0.268-1.638-0.172s-1.064 0.346-1.482 0.719v-4.766c0-0.796-0.316-1.559-0.879-2.121s-1.326-0.879-2.121-0.879c-0.796 0-1.559 0.316-2.121 0.879s-0.879 1.326-0.879 2.121v11.75l-1.408-2.258c-0.408-0.669-1.062-1.152-1.822-1.345s-1.565-0.081-2.243 0.312c-0.678 0.393-1.176 1.036-1.386 1.791s-0.117 1.562 0.261 2.249l3.665 6.25c0.071 0.104 0.179 0.176 0.302 0.204s0.252 0.008 0.36-0.055c0.109-0.063 0.19-0.165 0.227-0.285s0.027-0.25-0.027-0.364l-3.664-6.25c-0.265-0.459-0.337-1.006-0.2-1.518s0.473-0.949 0.932-1.215c0.46-0.265 1.005-0.337 1.518-0.2s0.949 0.473 1.215 0.932l0.009 0.015 2.335 3.75c0.057 0.093 0.143 0.164 0.245 0.203s0.213 0.044 0.318 0.014c0.105-0.030 0.197-0.093 0.262-0.18s0.101-0.193 0.1-0.302v-13.5c0-0.53 0.211-1.039 0.586-1.414s0.884-0.586 1.414-0.586c0.53 0 1.039 0.211 1.414 0.586s0.586 0.884 0.586 1.414v8.5c0 0.133 0.053 0.26 0.146 0.354s0.221 0.146 0.354 0.146c0.133 0 0.26-0.053 0.354-0.146s0.146-0.221 0.146-0.354v-1.5c0-0.53 0.211-1.039 0.586-1.414s0.884-0.586 1.414-0.586c0.53 0 1.039 0.211 1.414 0.586s0.586 0.884 0.586 1.414v2.5c0 0.133 0.053 0.26 0.146 0.354s0.221 0.146 0.354 0.146c0.133 0 0.26-0.053 0.354-0.146s0.146-0.221 0.146-0.354v-0.5c0-0.53 0.211-1.039 0.586-1.414s0.884-0.586 1.414-0.586c0.53 0 1.039 0.211 1.414 0.586s0.586 0.884 0.586 1.414v4.5c0 2.832-0.939 4.758-0.948 4.776-0.029 0.059-0.047 0.123-0.052 0.188s0.004 0.131 0.024 0.194c0.021 0.062 0.054 0.12 0.097 0.17s0.096 0.090 0.154 0.12c0.070 0.034 0.146 0.052 0.224 0.052 0.093 0 0.184-0.026 0.263-0.075s0.143-0.119 0.184-0.202c0.042-0.086 1.052-2.141 1.052-5.224v-4.5c0-0.796-0.316-1.559-0.879-2.121s-1.326-0.879-2.121-0.879z"></path>
</symbol>
<symbol id="icon-desktop-location" viewBox="0 0 32 32">
<path d="M15.983 2.44c-3.016-0.015-5.918 1.161-8.072 3.272-0.002 0.002-0.004 0.004-0.006 0.006l-0 0c-2.147 2.147-3.353 5.060-3.353 8.096s1.206 5.948 3.353 8.095l5.581 5.581c0.666 0.666 1.571 1.042 2.514 1.042s1.847-0.375 2.514-1.042l5.581-5.581c0.002-0.002 0.005-0.005 0.007-0.007l0-0c2.111-2.154 3.287-5.055 3.272-8.071s-1.222-5.905-3.354-8.038c-2.133-2.133-5.021-3.338-8.037-3.353zM15.973 4.218c2.548 0.013 4.987 1.030 6.789 2.832s2.82 4.242 2.833 6.791-0.98 4.997-2.764 6.817l-5.575 5.575c-0.334 0.334-0.785 0.521-1.257 0.521s-0.923-0.187-1.257-0.521l-5.581-5.581c-1.814-1.814-2.832-4.273-2.832-6.838 0-2.563 1.017-5.022 2.829-6.836 1.82-1.782 4.268-2.773 6.815-2.76z"></path>
<path d="M16 8.925c-2.69 0-4.889 2.199-4.889 4.889s2.199 4.889 4.889 4.889c2.69 0 4.889-2.199 4.889-4.889s-2.199-4.889-4.889-4.889zM16 10.703c1.729 0 3.111 1.382 3.111 3.111s-1.382 3.111-3.111 3.111c-1.729 0-3.111-1.382-3.111-3.111s1.382-3.111 3.111-3.111z"></path>
</symbol>
<symbol id="icon-desktop-quotation" viewBox="0 0 41 32">
<path d="M6.788 2.27c1.014-1.326 2.067-2.067 3.16-2.224 1.17-0.156 2.146 0.078 2.926 0.702 0.858 0.546 1.326 1.404 1.404 2.575 0.156 1.092-0.312 2.302-1.404 3.628-1.56 1.95-2.653 3.901-3.277 5.851-0.546 1.95-0.819 3.706-0.819 5.266l-0.468-3.862c2.731 0 4.915 0.78 6.554 2.341 1.716 1.56 2.575 3.667 2.575 6.32 0 2.497-0.78 4.564-2.341 6.203-1.56 1.56-3.667 2.341-6.32 2.341-2.731 0-4.876-0.936-6.437-2.809s-2.341-4.486-2.341-7.841c0-1.872 0.156-3.784 0.468-5.734 0.39-2.029 1.092-4.096 2.107-6.203s2.419-4.291 4.213-6.554zM29.608 2.27c1.014-1.326 2.067-2.067 3.16-2.224 1.17-0.156 2.146 0.078 2.926 0.702 0.858 0.546 1.326 1.404 1.404 2.575 0.156 1.092-0.312 2.302-1.404 3.628-1.56 1.95-2.653 3.901-3.277 5.851-0.546 1.95-0.819 3.706-0.819 5.266l-0.468-3.862c2.731 0 4.915 0.78 6.554 2.341 1.716 1.56 2.575 3.667 2.575 6.32 0 2.497-0.78 4.564-2.341 6.203-1.56 1.56-3.667 2.341-6.32 2.341-2.731 0-4.876-0.936-6.437-2.809s-2.341-4.486-2.341-7.841c0-1.872 0.156-3.784 0.468-5.734 0.39-2.029 1.092-4.096 2.107-6.203s2.419-4.291 4.213-6.554z"></path>
</symbol>
<symbol id="icon-desktop-inst" viewBox="0 0 32 32">
<path d="M16.001 12c-1.061 0-2.078 0.421-2.828 1.172s-1.172 1.768-1.172 2.828 0.421 2.078 1.172 2.828c0.75 0.75 1.768 1.172 2.828 1.172s2.078-0.421 2.828-1.172c0.75-0.75 1.172-1.768 1.172-2.828s-0.421-2.078-1.172-2.828c-0.75-0.75-1.768-1.172-2.828-1.172zM16.001 9.333c1.768 0 3.464 0.702 4.714 1.953s1.953 2.946 1.953 4.714-0.702 3.464-1.953 4.714c-1.25 1.25-2.946 1.953-4.714 1.953s-3.464-0.702-4.714-1.953c-1.25-1.25-1.953-2.946-1.953-4.714s0.702-3.464 1.953-4.714c1.25-1.25 2.946-1.953 4.714-1.953zM24.668 9c0 0.442-0.176 0.866-0.488 1.178s-0.736 0.488-1.178 0.488c-0.442 0-0.866-0.176-1.179-0.488s-0.488-0.736-0.488-1.178 0.176-0.866 0.488-1.178c0.313-0.313 0.736-0.488 1.179-0.488s0.866 0.176 1.178 0.488c0.313 0.313 0.488 0.736 0.488 1.178zM16.001 5.333c-3.299 0-3.837 0.009-5.372 0.077-1.045 0.049-1.747 0.189-2.397 0.443-0.544 0.2-1.036 0.521-1.44 0.937-0.417 0.404-0.738 0.896-0.939 1.44-0.253 0.653-0.393 1.353-0.441 2.397-0.069 1.472-0.079 1.987-0.079 5.372 0 3.3 0.009 3.837 0.077 5.372 0.049 1.044 0.189 1.747 0.441 2.396 0.227 0.58 0.493 0.997 0.936 1.44 0.449 0.448 0.867 0.716 1.44 0.937 0.659 0.255 1.36 0.396 2.4 0.444 1.472 0.069 1.987 0.077 5.372 0.077 3.3 0 3.837-0.009 5.372-0.077 1.043-0.049 1.744-0.189 2.396-0.441 0.544-0.2 1.036-0.521 1.44-0.937 0.449-0.448 0.717-0.865 0.939-1.44 0.253-0.656 0.395-1.357 0.443-2.4 0.069-1.471 0.077-1.987 0.077-5.371 0-3.299-0.009-3.837-0.077-5.372-0.049-1.043-0.191-1.747-0.443-2.397-0.2-0.544-0.521-1.036-0.937-1.44-0.403-0.417-0.896-0.738-1.44-0.939-0.653-0.253-1.355-0.393-2.397-0.441-1.471-0.069-1.985-0.077-5.372-0.077zM16 2.667c3.623 0 4.075 0.013 5.497 0.080 1.419 0.067 2.387 0.289 3.236 0.62 0.88 0.339 1.621 0.797 2.363 1.537 0.678 0.666 1.203 1.473 1.537 2.363 0.329 0.849 0.553 1.817 0.62 3.237 0.063 1.421 0.080 1.873 0.080 5.496s-0.013 4.075-0.080 5.496c-0.067 1.421-0.291 2.387-0.62 3.237-0.334 0.89-0.859 1.696-1.537 2.363-0.666 0.678-1.473 1.203-2.363 1.537-0.849 0.329-1.817 0.553-3.236 0.62-1.423 0.063-1.875 0.080-5.497 0.080s-4.075-0.013-5.497-0.080c-1.419-0.067-2.385-0.291-3.236-0.62-0.89-0.334-1.696-0.859-2.363-1.537-0.678-0.666-1.203-1.473-1.537-2.363-0.331-0.849-0.553-1.817-0.62-3.237-0.064-1.421-0.080-1.873-0.080-5.496s0.013-4.075 0.080-5.496c0.067-1.421 0.289-2.387 0.62-3.237 0.334-0.89 0.859-1.696 1.537-2.363 0.666-0.678 1.473-1.203 2.363-1.537 0.849-0.331 1.816-0.553 3.236-0.62 1.424-0.063 1.876-0.080 5.499-0.080z"></path>
</symbol>
<symbol id="icon-desktop-dots" viewBox="0 0 179 32">
<path d="M32 16c0 8.837-7.163 16-16 16s-16-7.163-16-16c0-8.837 7.163-16 16-16s16 7.163 16 16z"></path>
<path d="M81.067 16c0 8.837-7.163 16-16 16s-16-7.163-16-16c0-8.837 7.163-16 16-16s16 7.163 16 16z"></path>
<path d="M130.133 16c0 8.837-7.163 16-16 16s-16-7.163-16-16c0-8.837 7.163-16 16-16s16 7.163 16 16z"></path>
<path d="M179.2 16c0 8.837-7.163 16-16 16s-16-7.163-16-16c0-8.837 7.163-16 16-16s16 7.163 16 16z"></path>
</symbol>
<symbol id="icon-desktop-inf" viewBox="0 0 32 32">
<path d="M8.534 8.909c-0.905-0.001-1.8 0.175-2.636 0.52s-1.597 0.851-2.237 1.49-1.148 1.398-1.496 2.233c-0.347 0.835-0.527 1.73-0.528 2.635v0.001c0.001 0.905 0.181 1.8 0.528 2.635s0.855 1.594 1.496 2.233c0.641 0.639 1.401 1.145 2.237 1.49s1.732 0.521 2.636 0.52c2.475 0 4.345-1.735 5.582-3.384 0.609-0.811 1.071-1.614 1.389-2.227 0.319 0.613 0.779 1.417 1.389 2.227 1.24 1.649 3.117 3.384 5.601 3.384 0.904 0.001 1.799-0.175 2.635-0.52s1.597-0.851 2.237-1.49c0.64-0.639 1.15-1.398 1.497-2.233s0.526-1.73 0.527-2.635v-0.001c-0.001-0.904-0.18-1.8-0.527-2.635s-0.857-1.594-1.497-2.233-1.401-1.145-2.237-1.49c-0.836-0.345-1.731-0.521-2.635-0.52h-0.001c-2.483 0.001-4.359 1.735-5.599 3.384-0.61 0.811-1.070 1.614-1.389 2.227-0.319-0.613-0.78-1.415-1.389-2.226-1.238-1.648-3.107-3.385-5.582-3.385zM8.533 10h0.001c1.955 0 3.57 1.431 4.71 2.949 1.064 1.417 1.562 2.656 1.638 2.84-0.076 0.183-0.574 1.421-1.638 2.838-1.14 1.518-2.755 2.949-4.71 2.949h-0.001c-0.761 0.001-1.515-0.147-2.219-0.438s-1.343-0.717-1.882-1.254c-0.539-0.538-0.968-1.176-1.26-1.879s-0.443-1.456-0.445-2.217c0.001-0.761 0.152-1.513 0.445-2.216s0.721-1.342 1.26-1.879 1.178-0.964 1.882-1.254c0.704-0.29 1.457-0.439 2.219-0.438zM22.496 10c0.761-0.001 1.515 0.147 2.219 0.438s1.344 0.717 1.884 1.254 0.966 1.176 1.259 1.879c0.292 0.702 0.443 1.455 0.445 2.216-0.001 0.761-0.152 1.514-0.445 2.217s-0.719 1.342-1.259 1.879c-0.539 0.538-1.18 0.964-1.884 1.254s-1.457 0.439-2.219 0.438c-1.967 0-3.586-1.431-4.729-2.949-1.066-1.417-1.562-2.654-1.638-2.838 0.076-0.184 0.572-1.423 1.638-2.84 1.142-1.518 2.762-2.949 4.729-2.949z"></path>
</symbol>
<symbol id="icon-desktop-minus" viewBox="0 0 32 32">
<path d="M24 21.333h-16c-2.205 0-4-1.795-4-4s1.795-4 4-4h16c2.205 0 4 1.795 4 4s-1.795 4-4 4zM8 16c-0.735 0-1.333 0.599-1.333 1.333s0.599 1.333 1.333 1.333h16c0.735 0 1.333-0.599 1.333-1.333s-0.599-1.333-1.333-1.333h-16z"></path>
</symbol>
<symbol id="icon-desktop-plus" viewBox="0 0 32 32">
<path d="M16 28c-2.205 0-4-1.795-4-4l0.071-4.071-4.047 0.071c-2.229 0-4.024-1.795-4.024-4s1.795-4 4-4l4.071-0.072-0.071-3.904c0-2.229 1.795-4.024 4-4.024s4 1.795 4 4l0.073 3.928 3.951 0.072c2.181 0 3.976 1.795 3.976 4s-1.795 4-4 4l-3.927-0.071-0.073 4.095c0 2.181-1.795 3.976-4 3.976zM14.667 17.333v6.691c0 0.711 0.599 1.309 1.333 1.309s1.333-0.599 1.333-1.333v-6.667h6.691c0.711 0 1.309-0.599 1.309-1.333s-0.599-1.333-1.333-1.333h-6.667v-6.667c0-0.759-0.599-1.333-1.333-1.333s-1.333 0.599-1.333 1.333v6.667h-6.667c-0.759 0-1.333 0.599-1.333 1.333s0.599 1.333 1.333 1.333h6.667z"></path>
</symbol>
<symbol id="icon-mob-brain" viewBox="0 0 32 32">
<path d="M9.12 6.317c0.146-0.731 0.499-1.405 1.017-1.94s1.181-0.91 1.907-1.079c0.726-0.169 1.485-0.125 2.187 0.127s1.316 0.7 1.769 1.292c0.453-0.592 1.067-1.040 1.769-1.292s1.461-0.296 2.187-0.127c0.726 0.169 1.388 0.543 1.907 1.079s0.872 1.209 1.017 1.94l0.2 1.003 0.65 0.13c0.978 0.196 1.859 0.725 2.491 1.497s0.979 1.739 0.979 2.737v0.317c0 1.162-0.496 2.208-1.288 2.939 0.967 0.479 1.761 1.248 2.272 2.199s0.712 2.038 0.576 3.109c-0.135 1.071-0.601 2.073-1.332 2.868s-1.692 1.341-2.748 1.564l-0.059 0.296c-0.184 0.922-0.638 1.769-1.304 2.434s-1.513 1.117-2.436 1.3-1.879 0.088-2.748-0.272c-0.869-0.36-1.611-0.97-2.134-1.753-0.522 0.782-1.265 1.392-2.133 1.753s-1.825 0.455-2.748 0.272c-0.923-0.183-1.77-0.635-2.436-1.3s-1.119-1.512-1.304-2.434l-0.059-0.296c-1.056-0.223-2.017-0.77-2.748-1.564s-1.197-1.797-1.332-2.868c-0.135-1.071 0.066-2.158 0.576-3.109s1.305-1.72 2.272-2.199c-0.406-0.374-0.73-0.829-0.952-1.335s-0.336-1.052-0.336-1.604v-0.317c0-0.998 0.346-1.965 0.979-2.737s1.513-1.301 2.491-1.497l0.65-0.128 0.2-1.005zM23.2 16c-0.212 0-0.416-0.084-0.566-0.234s-0.234-0.354-0.234-0.566c0-0.212 0.084-0.416 0.234-0.566s0.354-0.234 0.566-0.234c0.637 0 1.247-0.253 1.697-0.703s0.703-1.061 0.703-1.697v-0.317c0-1.296-0.914-2.41-2.184-2.664l-1.173-0.235c-0.155-0.031-0.297-0.107-0.408-0.219s-0.188-0.254-0.219-0.409l-0.306-1.526c-0.11-0.555-0.422-1.050-0.877-1.387s-1.018-0.493-1.582-0.437-1.085 0.32-1.465 0.74c-0.379 0.42-0.589 0.966-0.587 1.532v16.965c0.001 0.782 0.293 1.537 0.819 2.116s1.248 0.943 2.027 1.020c0.779 0.077 1.558-0.138 2.187-0.603s1.063-1.147 1.218-1.914l0.165-0.819c0.031-0.155 0.107-0.297 0.219-0.409s0.254-0.188 0.408-0.219l0.466-0.094c0.873-0.177 1.649-0.672 2.178-1.389s0.773-1.604 0.686-2.49c-0.088-0.886-0.501-1.709-1.16-2.308s-1.517-0.932-2.407-0.935h-0.405zM15.2 22.4v-15.325c0.001-0.566-0.208-1.112-0.588-1.532s-0.902-0.683-1.465-0.739-1.127 0.1-1.581 0.438c-0.454 0.337-0.767 0.832-0.877 1.387l-0.304 1.526c-0.031 0.155-0.107 0.297-0.219 0.409s-0.254 0.188-0.409 0.218l-1.173 0.235c-0.616 0.124-1.17 0.457-1.568 0.943s-0.616 1.095-0.616 1.723v0.317c0 0.636 0.253 1.247 0.703 1.697s1.061 0.703 1.697 0.703c0.212 0 0.416 0.084 0.566 0.234s0.234 0.354 0.234 0.566-0.084 0.416-0.234 0.566c-0.15 0.15-0.353 0.234-0.566 0.234h-0.403c-0.891 0.003-1.749 0.336-2.408 0.935s-1.073 1.421-1.161 2.308 0.156 1.774 0.685 2.491c0.529 0.717 1.305 1.212 2.178 1.389l0.466 0.094c0.155 0.031 0.297 0.107 0.409 0.219s0.188 0.254 0.219 0.409l0.165 0.819c0.155 0.767 0.589 1.449 1.218 1.914s1.409 0.68 2.187 0.603c0.779-0.077 1.501-0.441 2.027-1.020s0.818-1.334 0.819-2.116v-1.643z"></path>
</symbol>
<symbol id="icon-mob-design" viewBox="0 0 32 32">
<path d="M8.054 3.409c0.291 0.133 0.48 0.42 0.487 0.739 0.027 1.188 0.447 1.858 0.93 2.527l0.135 0.185c0.467 0.634 1.061 1.441 1.061 2.638 0 0.572-0.134 1.136-0.391 1.648s-0.63 0.955-1.090 1.296c0.425 0.375 0.721 0.847 0.93 1.337 0.467 1.099 0.551 2.443 0.551 3.519 0 1.76-0.272 4.453-0.771 6.72-0.249 1.129-0.563 2.2-0.953 3.009-0.193 0.402-0.427 0.785-0.715 1.077-0.29 0.295-0.701 0.563-1.225 0.563s-0.935-0.267-1.225-0.562c-0.288-0.293-0.522-0.675-0.716-1.077-0.391-0.809-0.707-1.88-0.955-3.009-0.5-2.267-0.773-4.96-0.773-6.72 0-1.077 0.085-2.421 0.554-3.52 0.209-0.49 0.505-0.96 0.929-1.334-0.46-0.341-0.834-0.785-1.092-1.297s-0.392-1.077-0.392-1.65c0-0.877 0.112-1.719 0.706-2.7 0.564-0.932 1.538-1.946 3.137-3.273 0.121-0.1 0.267-0.164 0.422-0.185s0.313 0.003 0.456 0.068zM5.465 7.662c-0.387 0.637-0.465 1.15-0.465 1.837 0 0.53 0.211 1.039 0.586 1.414s0.884 0.586 1.414 0.586 1.039-0.211 1.414-0.586c0.375-0.375 0.586-0.884 0.586-1.414 0-0.631-0.274-1.010-0.777-1.705l-0.103-0.143c-0.358-0.497-0.747-1.081-0.993-1.872-0.855 0.787-1.359 1.385-1.661 1.884zM5.421 14.431c-0.329 0.77-0.421 1.825-0.421 2.867 0 1.634 0.259 4.208 0.734 6.36 0.239 1.081 0.521 2.007 0.829 2.643 0.155 0.32 0.295 0.523 0.404 0.633 0.013 0.014 0.025 0.025 0.036 0.035 0.011-0.009 0.023-0.020 0.036-0.034 0.109-0.111 0.249-0.313 0.403-0.633 0.307-0.637 0.589-1.562 0.827-2.643 0.474-2.153 0.732-4.727 0.732-6.361 0-1.042-0.091-2.097-0.418-2.867-0.159-0.373-0.356-0.638-0.588-0.811-0.223-0.166-0.531-0.287-0.991-0.287s-0.769 0.121-0.993 0.287c-0.232 0.173-0.43 0.44-0.589 0.812zM14 6.333c-0.942-0.001-1.873 0.209-2.723 0.613-0.182-0.304-0.382-0.598-0.597-0.879l-0.127-0.171c-0.080-0.11-0.157-0.221-0.231-0.335 1.137-0.589 2.398-0.896 3.679-0.894 4.193 0 7.633 3.227 7.973 7.333h2.527c1.105 0 2.165 0.439 2.946 1.22s1.22 1.841 1.22 2.946v7c0 1.105-0.439 2.165-1.22 2.946s-1.841 1.22-2.946 1.22h-7c-1.105 0-2.165-0.439-2.946-1.22s-1.22-1.841-1.22-2.946v-2.527c-0.512-0.042-1.019-0.134-1.513-0.273 0.060-0.566 0.106-1.134 0.139-1.702 0.445 0.152 0.907 0.253 1.375 0.301v-2.799c0-1.105 0.439-2.165 1.22-2.946s1.841-1.22 2.946-1.22h2.799c-0.333-3.185-3.026-5.667-6.299-5.667zM24.5 13.667h-2.562c-0.223 1.762-1.025 3.401-2.281 4.657s-2.894 2.059-4.657 2.281v2.562c0 0.663 0.263 1.299 0.732 1.768s1.105 0.732 1.768 0.732h7c0.663 0 1.299-0.263 1.768-0.732s0.732-1.105 0.732-1.768v-7c0-0.663-0.263-1.299-0.732-1.768s-1.105-0.732-1.768-0.732zM15 18.921c1.317-0.212 2.534-0.833 3.478-1.777s1.565-2.16 1.777-3.478h-2.755c-0.663 0-1.299 0.263-1.768 0.732s-0.732 1.105-0.732 1.768v2.755z"></path>
</symbol>
<symbol id="icon-mob-burger" viewBox="0 0 32 32">
<path d="M2.286 6.572c0-0.227 0.090-0.445 0.251-0.606s0.379-0.251 0.606-0.251h25.714c0.227 0 0.445 0.090 0.606 0.251s0.251 0.379 0.251 0.606-0.090 0.445-0.251 0.606c-0.161 0.161-0.379 0.251-0.606 0.251h-25.714c-0.227 0-0.445-0.090-0.606-0.251s-0.251-0.379-0.251-0.606zM2.286 24.857c0-0.227 0.090-0.445 0.251-0.606s0.379-0.251 0.606-0.251h25.714c0.227 0 0.445 0.090 0.606 0.251s0.251 0.379 0.251 0.606-0.090 0.445-0.251 0.606c-0.161 0.161-0.379 0.251-0.606 0.251h-25.714c-0.227 0-0.445-0.090-0.606-0.251s-0.251-0.379-0.251-0.606zM3.143 14.857c-0.227 0-0.445 0.090-0.606 0.251s-0.251 0.379-0.251 0.606c0 0.227 0.090 0.445 0.251 0.606s0.379 0.251 0.606 0.251h25.714c0.227 0 0.445-0.090 0.606-0.251s0.251-0.379 0.251-0.606-0.090-0.445-0.251-0.606c-0.161-0.161-0.379-0.251-0.606-0.251h-25.714z"></path>
</symbol>
<symbol id="icon-mob-puzzle" viewBox="0 0 32 32">
<path d="M13.332 2.125c-0.727 0-1.444 0.174-2.089 0.509s-1.202 0.817-1.622 1.41c-0.42 0.593-0.691 1.28-0.791 2-0.068 0.486 0.057 0.965 0.146 1.445-1.201 0.013-2.29 0.026-3.119 0.17-0.984 0.171-1.787 0.51-2.405 1.128s-0.956 1.419-1.128 2.403c-0.171 0.984-0.198 2.171-0.203 3.7 0 0.001 0 0.002 0 0.003 0 0.301 0.244 0.546 0.546 0.546 0.065 0 0.128-0.011 0.186-0.032l-0.004 0.001c0.521-0.183 1.078-0.238 1.625-0.162s1.066 0.283 1.517 0.602c0.451 0.319 0.819 0.741 1.072 1.232s0.386 1.034 0.386 1.587c0 0.552-0.133 1.096-0.386 1.587s-0.622 0.914-1.072 1.233c-0.451 0.319-0.97 0.526-1.517 0.602s-1.104 0.020-1.625-0.163c-0.054-0.020-0.117-0.031-0.182-0.031-0.301 0-0.546 0.244-0.546 0.546 0 0.001 0 0.002 0 0.003v-0c0.005 1.529 0.032 2.716 0.203 3.7s0.51 1.787 1.128 2.405c0.618 0.618 1.421 0.955 2.405 1.126s2.171 0.199 3.7 0.205c0 0 0.001 0 0.001 0 0.301 0 0.546-0.244 0.546-0.546 0-0.065-0.011-0.128-0.032-0.186l0.001 0.004c-0.183-0.521-0.238-1.078-0.162-1.625s0.283-1.066 0.602-1.517c0.319-0.451 0.741-0.819 1.232-1.072 0 0 0 0 0.001 0s0.001 0 0.001 0h-0c0.49-0.254 1.034-0.386 1.587-0.386s1.096 0.133 1.587 0.386c0.49 0.254 0.912 0.622 1.232 1.072s0.526 0.97 0.602 1.517 0.021 1.104-0.162 1.625c-0.020 0.054-0.031 0.117-0.031 0.182 0 0.301 0.244 0.546 0.546 0.546 0 0 0.001 0 0.001 0h-0c1.529-0.005 2.716-0.033 3.7-0.205s1.787-0.508 2.405-1.126c0.618-0.618 0.956-1.421 1.128-2.405 0.144-0.829 0.158-1.918 0.17-3.119 0.48 0.089 0.958 0.214 1.445 0.146 0.72-0.1 1.405-0.371 1.999-0.791s1.078-0.977 1.412-1.622c0.334-0.646 0.509-1.363 0.509-2.090s-0.174-1.442-0.509-2.088c-0.334-0.646-0.818-1.202-1.412-1.622s-1.279-0.691-1.999-0.791c-0.486-0.068-0.964 0.057-1.443 0.146-0.013-1.202-0.027-2.29-0.172-3.119-0.171-0.984-0.51-1.787-1.128-2.405s-1.421-0.957-2.405-1.128c-0.829-0.144-1.918-0.158-3.119-0.17 0.089-0.48 0.214-0.958 0.146-1.445-0.1-0.72-0.371-1.407-0.791-2s-0.977-1.076-1.622-1.41-1.361-0.509-2.088-0.509zM13.332 3.216c0.553 0 1.096 0.132 1.587 0.386s0.914 0.621 1.233 1.072c0.319 0.451 0.525 0.973 0.601 1.52s0.021 1.104-0.163 1.625c-0.020 0.054-0.031 0.117-0.031 0.182 0 0.301 0.243 0.545 0.544 0.546h0c1.517 0.005 2.666 0.038 3.518 0.186s1.387 0.391 1.82 0.824c0 0 0 0 0 0.001s0 0.001 0 0.001v-0c0.433 0.433 0.675 0.967 0.824 1.82s0.182 2.001 0.188 3.518c0.001 0.301 0.245 0.544 0.546 0.544 0.065 0 0.128-0.011 0.186-0.032l-0.004 0.001c0.521-0.184 1.078-0.24 1.625-0.163s1.069 0.282 1.52 0.601c0.451 0.319 0.818 0.742 1.072 1.233s0.386 1.034 0.386 1.587c0 0.553-0.132 1.097-0.386 1.588s-0.621 0.914-1.072 1.233c-0.451 0.319-0.973 0.525-1.52 0.601s-1.104 0.020-1.625-0.163c-0.054-0.020-0.117-0.031-0.182-0.031-0.3 0-0.544 0.243-0.546 0.542v0c-0.005 1.517-0.039 2.666-0.188 3.518s-0.391 1.388-0.824 1.821c-0.433 0.433-0.967 0.675-1.82 0.824-0.709 0.124-1.766 0.142-2.926 0.156 0.078-0.46 0.204-0.916 0.139-1.381-0.101-0.72-0.373-1.404-0.793-1.997s-0.975-1.077-1.621-1.41c-0.645-0.334-1.361-0.509-2.088-0.509s-1.443 0.175-2.088 0.509c-0.645 0.334-1.202 0.818-1.622 1.41s-0.691 1.278-0.791 1.997c-0.065 0.465 0.059 0.921 0.138 1.381-1.16-0.014-2.216-0.033-2.925-0.156-0.853-0.149-1.388-0.391-1.821-0.824s-0.675-0.968-0.824-1.821c-0.124-0.709-0.142-1.765-0.156-2.925 0.46 0.078 0.916 0.203 1.381 0.138 0.72-0.101 1.404-0.371 1.997-0.791s1.077-0.977 1.411-1.622c0.334-0.645 0.509-1.362 0.509-2.088s-0.175-1.443-0.509-2.088c-0.334-0.645-0.818-1.201-1.41-1.621s-1.278-0.692-1.997-0.793c-0.465-0.065-0.921 0.061-1.381 0.139 0.014-1.16 0.033-2.217 0.156-2.926 0.149-0.853 0.391-1.387 0.824-1.82s0.968-0.675 1.821-0.824c0.853-0.149 2-0.182 3.517-0.188 0.301-0.001 0.544-0.245 0.544-0.546 0-0.065-0.011-0.128-0.032-0.186l0.001 0.004c-0.184-0.521-0.239-1.078-0.163-1.625s0.282-1.069 0.601-1.52c0.319-0.451 0.742-0.819 1.233-1.072s1.036-0.386 1.588-0.386z"></path>
</symbol>
<symbol id="icon-mob-facebook" viewBox="0 0 32 32">
<path d="M19.070 1.036c-2.136 0-4.187 0.84-5.701 2.339s-2.367 3.537-2.367 5.661v2.667h-2.706c-0.736 0-1.333 0.597-1.333 1.333v0 5.333c0 0.736 0.597 1.333 1.333 1.333h2.706v9.333c0 0.736 0.597 1.333 1.333 1.333h5.388c0.736-0 1.333-0.597 1.333-1.333v0-9.333h2.706c0.001 0 0.001 0 0.002 0 0.62 0 1.141-0.423 1.29-0.996l0.002-0.009 1.346-5.333c0.026-0.098 0.041-0.211 0.041-0.328 0-0.736-0.597-1.333-1.333-1.333h-4.055v-2.661c0.002-0.002 0.005-0.005 0.013-0.005h4.042c0.736-0 1.333-0.597 1.333-1.333v0-5.333c-0-0.736-0.597-1.333-1.333-1.333v0zM19.070 3.703h2.708v2.667h-2.708c-0.707 0-1.387 0.278-1.891 0.776s-0.789 1.18-0.789 1.891v4c0 0.736 0.597 1.333 1.333 1.333h3.675l-0.672 2.667h-3.003c-0.736 0-1.333 0.597-1.333 1.333v0 9.333h-2.721v-9.333c-0-0.736-0.597-1.333-1.333-1.333h-2.706v-2.667h2.706c0.736-0 1.333-0.597 1.333-1.333v0-4c0-1.411 0.566-2.764 1.578-3.766s2.387-1.568 3.823-1.568z"></path>
</symbol>
<symbol id="icon-mob-mail" viewBox="0 0 32 32">
<path d="M21.267 29.333l-5.667-5.667 1.867-1.867 3.8 3.8 7.533-7.533 1.867 1.867-9.4 9.4zM16 14.667l10.667-6.667h-21.333l10.667 6.667zM16 17.333l-10.667-6.667v13.333h6.867l2.667 2.667h-9.533c-0.733 0-1.361-0.261-1.883-0.783s-0.783-1.15-0.784-1.884v-16c0-0.733 0.261-1.361 0.784-1.883s1.15-0.783 1.883-0.784h21.333c0.733 0 1.361 0.261 1.884 0.784s0.784 1.15 0.783 1.883v5.8l-2.667 2.667v-5.8l-10.667 6.667z"></path>
</symbol>
<symbol id="icon-mob-head" viewBox="0 0 32 32">
<path d="M16 18c0.19 0 0.349-0.064 0.476-0.192s0.191-0.286 0.191-0.475v-6.667c0-0.189-0.064-0.348-0.192-0.475s-0.287-0.191-0.476-0.192c-0.189-0.001-0.348 0.063-0.475 0.192s-0.191 0.287-0.191 0.475v6.667c0 0.189 0.064 0.348 0.192 0.475s0.287 0.191 0.476 0.192zM20.001 16c0.189 0 0.348-0.064 0.475-0.192s0.191-0.286 0.191-0.475v-3.333c0-0.189-0.064-0.348-0.192-0.475s-0.287-0.191-0.476-0.192c-0.189-0.001-0.348 0.063-0.475 0.192s-0.191 0.287-0.191 0.475v3.333c0 0.189 0.064 0.348 0.192 0.475s0.287 0.191 0.476 0.192zM12.001 15.333c0.189 0 0.348-0.064 0.475-0.192s0.191-0.286 0.191-0.475v-2.667c0-0.189-0.064-0.348-0.192-0.475s-0.287-0.191-0.476-0.192c-0.189-0.001-0.348 0.063-0.475 0.192s-0.191 0.287-0.191 0.475v2.667c0 0.189 0.064 0.348 0.192 0.475s0.287 0.191 0.476 0.192zM9.333 22.984c-1.267-1.156-2.25-2.454-2.949-3.896s-1.050-2.922-1.051-4.44c0-2.957 1.037-5.472 3.111-7.543s4.592-3.106 7.556-3.105c2.402 0 4.572 0.731 6.512 2.193s3.197 3.351 3.773 5.667l1.381 5.471c0.089 0.338 0.026 0.645-0.189 0.923-0.215 0.276-0.502 0.413-0.861 0.413h-2.616v4.513c0 0.592-0.211 1.099-0.633 1.52s-0.929 0.632-1.52 0.633h-3.18v2c0 0.189-0.064 0.348-0.192 0.475s-0.287 0.191-0.476 0.192c-0.189 0.001-0.348-0.063-0.475-0.192s-0.191-0.287-0.191-0.475v-2.244c0-0.317 0.103-0.578 0.309-0.783s0.462-0.307 0.768-0.307h3.436c0.239 0 0.436-0.077 0.589-0.231s0.231-0.35 0.231-0.589v-4.769c0-0.306 0.103-0.562 0.309-0.768s0.462-0.309 0.768-0.309h2.523l-1.267-5.167c-0.511-2.039-1.609-3.688-3.293-4.947-1.682-1.258-3.584-1.887-5.707-1.887-2.578 0-4.778 0.902-6.6 2.707-1.822 1.806-2.733 4.002-2.733 6.587 0 1.328 0.272 2.59 0.817 3.787s1.316 2.26 2.316 3.189l0.867 0.797v4.933c0 0.189-0.064 0.348-0.192 0.475s-0.287 0.191-0.476 0.192c-0.189 0.001-0.348-0.063-0.475-0.192s-0.191-0.287-0.191-0.475v-4.349z"></path>
</symbol>
<symbol id="icon-mob-phone" viewBox="0 0 32 32">
<path d="M21.538 4.308h-11.077c-0.49 0-0.959 0.194-1.305 0.541s-0.541 0.816-0.541 1.305v19.692c0 0.49 0.194 0.959 0.541 1.305s0.816 0.541 1.305 0.541h11.077c0.49 0 0.959-0.194 1.305-0.541s0.541-0.816 0.541-1.305v-19.692c0-0.49-0.195-0.959-0.541-1.305s-0.816-0.541-1.305-0.541zM9.846 6.154c0-0.163 0.065-0.32 0.18-0.435s0.272-0.18 0.435-0.18h11.077c0.163 0 0.32 0.065 0.435 0.18s0.18 0.272 0.18 0.435v19.692c0 0.163-0.065 0.32-0.18 0.435s-0.272 0.18-0.435 0.18h-11.077c-0.163 0-0.32-0.065-0.435-0.18s-0.18-0.272-0.18-0.435v-19.692z"></path>
<path d="M16 25.846c-0.326 0-0.639-0.13-0.87-0.36s-0.361-0.544-0.361-0.87 0.13-0.639 0.361-0.87c0.231-0.231 0.544-0.36 0.87-0.36s0.639 0.13 0.87 0.36c0.231 0.231 0.36 0.544 0.36 0.87s-0.13 0.639-0.36 0.87c-0.231 0.231-0.544 0.36-0.87 0.36z"></path>
<path d="M16 30.154c-7.817 0-14.154-6.337-14.154-14.154s6.337-14.154 14.154-14.154c7.817 0 14.154 6.337 14.154 14.154s-6.337 14.154-14.154 14.154zM16 31.385c8.497 0 15.385-6.887 15.385-15.385s-6.887-15.385-15.385-15.385c-8.497 0-15.385 6.887-15.385 15.385s6.887 15.385 15.385 15.385z"></path>
</symbol>
<symbol id="icon-mob-touch" viewBox="0 0 32 32">
<path d="M7.5 9.5c0-1.857 0.737-3.637 2.050-4.95s3.093-2.050 4.95-2.050 3.637 0.737 4.95 2.050c1.313 1.313 2.050 3.093 2.050 4.95 0 0.133-0.053 0.26-0.146 0.354s-0.221 0.146-0.354 0.146c-0.133 0-0.26-0.053-0.354-0.146s-0.146-0.221-0.146-0.354c0-1.591-0.632-3.117-1.757-4.243s-2.651-1.757-4.243-1.757c-1.591 0-3.117 0.632-4.243 1.757s-1.757 2.651-1.757 4.243c0 0.133-0.053 0.26-0.146 0.354s-0.221 0.146-0.354 0.146c-0.133 0-0.26-0.053-0.354-0.146s-0.146-0.221-0.146-0.354zM24.5 15.5c-0.743-0.001-1.459 0.275-2.009 0.774-0.043-0.558-0.241-1.093-0.571-1.544s-0.781-0.801-1.3-1.010c-0.519-0.209-1.087-0.268-1.638-0.172s-1.064 0.346-1.482 0.719v-4.766c0-0.796-0.316-1.559-0.879-2.121s-1.326-0.879-2.121-0.879c-0.796 0-1.559 0.316-2.121 0.879s-0.879 1.326-0.879 2.121v11.75l-1.408-2.258c-0.408-0.669-1.062-1.152-1.822-1.345s-1.565-0.081-2.243 0.312c-0.678 0.393-1.176 1.036-1.386 1.791s-0.117 1.562 0.261 2.249l3.665 6.25c0.071 0.104 0.179 0.176 0.302 0.204s0.251 0.008 0.36-0.055c0.109-0.063 0.19-0.165 0.227-0.285s0.027-0.25-0.027-0.364l-3.664-6.25c-0.265-0.459-0.337-1.006-0.2-1.518s0.473-0.949 0.932-1.215c0.46-0.265 1.006-0.337 1.518-0.2s0.949 0.473 1.215 0.932l0.009 0.015 2.335 3.75c0.057 0.093 0.143 0.164 0.245 0.203s0.213 0.044 0.318 0.014c0.105-0.030 0.197-0.093 0.262-0.18s0.101-0.193 0.1-0.302v-13.5c0-0.53 0.211-1.039 0.586-1.414s0.884-0.586 1.414-0.586c0.53 0 1.039 0.211 1.414 0.586s0.586 0.884 0.586 1.414v8.5c0 0.133 0.053 0.26 0.146 0.354s0.221 0.146 0.354 0.146c0.133 0 0.26-0.053 0.354-0.146s0.146-0.221 0.146-0.354v-1.5c0-0.53 0.211-1.039 0.586-1.414s0.884-0.586 1.414-0.586c0.53 0 1.039 0.211 1.414 0.586s0.586 0.884 0.586 1.414v2.5c0 0.133 0.053 0.26 0.146 0.354s0.221 0.146 0.354 0.146c0.133 0 0.26-0.053 0.354-0.146s0.146-0.221 0.146-0.354v-0.5c0-0.53 0.211-1.039 0.586-1.414s0.884-0.586 1.414-0.586c0.53 0 1.039 0.211 1.414 0.586s0.586 0.884 0.586 1.414v4.5c0 2.832-0.939 4.758-0.948 4.776-0.029 0.059-0.047 0.123-0.052 0.188s0.004 0.131 0.024 0.194c0.021 0.062 0.054 0.12 0.097 0.17s0.096 0.090 0.154 0.12c0.070 0.034 0.146 0.052 0.224 0.052 0.093 0 0.184-0.026 0.263-0.075s0.143-0.119 0.184-0.202c0.042-0.086 1.052-2.141 1.052-5.224v-4.5c0-0.796-0.316-1.559-0.879-2.121s-1.326-0.879-2.121-0.879z"></path>
</symbol>
<symbol id="icon-mob-location" viewBox="0 0 32 32">
<path d="M15.984 1.995c-3.133-0.016-6.148 1.206-8.385 3.398-0 0-0.003 0.004-0.005 0.007l-0.003 0.003c-2.23 2.23-3.484 5.255-3.484 8.409s1.255 6.181 3.484 8.411l5.581 5.581c0.75 0.75 1.768 1.172 2.828 1.172s2.078-0.422 2.828-1.172l5.581-5.581c0.004-0.003 0.007-0.007 0.010-0.010l0-0c2.193-2.238 3.414-5.252 3.398-8.385s-1.269-6.134-3.484-8.349-5.216-3.469-8.349-3.484zM15.971 4.661c2.431 0.012 4.757 0.984 6.477 2.703s2.691 4.045 2.703 6.477c0.012 2.427-0.932 4.759-2.628 6.495l-0.003 0.003c-0.002 0.002-0.003 0.006-0.005 0.008l-5.573 5.573c-0.25 0.25-0.589 0.39-0.943 0.39s-0.692-0.14-0.943-0.391l-5.581-5.583c-1.73-1.731-2.703-4.077-2.703-6.523 0-2.445 0.971-4.788 2.698-6.518 1.736-1.699 4.071-2.645 6.5-2.633z"></path>
<path d="M16 8.479c-2.93 0-5.333 2.404-5.333 5.333s2.404 5.333 5.333 5.333 5.333-2.404 5.333-5.333c0-2.93-2.404-5.333-5.333-5.333zM16 11.146c1.489 0 2.667 1.178 2.667 2.667s-1.178 2.667-2.667 2.667-2.667-1.178-2.667-2.667c0-1.489 1.178-2.667 2.667-2.667z"></path>
</symbol>
<symbol id="icon-mob-quotation" viewBox="0 0 40 32">
<path d="M6.599 2.938c0.986-1.289 2.010-2.010 3.072-2.162 1.138-0.152 2.086 0.076 2.844 0.683 0.834 0.531 1.29 1.365 1.365 2.503 0.152 1.062-0.303 2.238-1.365 3.527-1.517 1.896-2.579 3.793-3.186 5.689-0.531 1.896-0.796 3.603-0.796 5.12l-0.455-3.755c2.655 0 4.779 0.758 6.372 2.276 1.669 1.517 2.503 3.565 2.503 6.144 0 2.427-0.759 4.437-2.276 6.030-1.517 1.517-3.565 2.276-6.144 2.276-2.655 0-4.741-0.91-6.258-2.731s-2.276-4.361-2.276-7.623c0-1.82 0.152-3.679 0.455-5.575 0.379-1.972 1.062-3.982 2.048-6.030s2.351-4.172 4.096-6.372zM28.786 2.938c0.986-1.289 2.010-2.010 3.072-2.162 1.138-0.152 2.086 0.076 2.844 0.683 0.834 0.531 1.289 1.365 1.365 2.503 0.152 1.062-0.303 2.238-1.365 3.527-1.517 1.896-2.579 3.793-3.186 5.689-0.531 1.896-0.796 3.603-0.796 5.12l-0.455-3.755c2.655 0 4.779 0.758 6.372 2.276 1.669 1.517 2.503 3.565 2.503 6.144 0 2.427-0.758 4.437-2.276 6.030-1.517 1.517-3.565 2.276-6.144 2.276-2.655 0-4.741-0.91-6.258-2.731s-2.276-4.361-2.276-7.623c0-1.82 0.152-3.679 0.455-5.575 0.379-1.972 1.062-3.982 2.048-6.030s2.351-4.172 4.096-6.372z"></path>
</symbol>
<symbol id="icon-mob-inst" viewBox="0 0 32 32">
<path d="M16.001 12c-1.061 0-2.078 0.421-2.828 1.172s-1.172 1.768-1.172 2.828c0 1.061 0.421 2.078 1.172 2.828s1.768 1.172 2.828 1.172c1.061 0 2.078-0.421 2.828-1.172s1.172-1.768 1.172-2.828c0-1.061-0.421-2.078-1.172-2.828s-1.768-1.172-2.828-1.172zM16.001 9.333c1.768 0 3.464 0.702 4.714 1.953s1.953 2.946 1.953 4.714-0.702 3.464-1.953 4.714c-1.25 1.25-2.946 1.953-4.714 1.953s-3.464-0.702-4.714-1.953c-1.25-1.25-1.953-2.946-1.953-4.714s0.702-3.464 1.953-4.714c1.25-1.25 2.946-1.953 4.714-1.953zM24.668 9c0 0.442-0.176 0.866-0.488 1.178s-0.737 0.488-1.179 0.488c-0.442 0-0.866-0.176-1.179-0.488s-0.488-0.736-0.488-1.178c0-0.442 0.176-0.866 0.488-1.178s0.737-0.488 1.179-0.488c0.442 0 0.866 0.176 1.179 0.488s0.488 0.736 0.488 1.178zM16.001 5.333c-3.299 0-3.837 0.009-5.372 0.077-1.045 0.049-1.747 0.189-2.397 0.443-0.544 0.2-1.036 0.521-1.44 0.937-0.417 0.404-0.738 0.896-0.939 1.44-0.253 0.653-0.393 1.353-0.441 2.397-0.069 1.472-0.079 1.987-0.079 5.372 0 3.3 0.009 3.837 0.077 5.372 0.049 1.044 0.189 1.747 0.441 2.396 0.227 0.58 0.493 0.997 0.936 1.44 0.449 0.448 0.867 0.716 1.44 0.937 0.659 0.255 1.36 0.396 2.4 0.444 1.472 0.069 1.987 0.077 5.372 0.077 3.3 0 3.837-0.009 5.372-0.077 1.043-0.049 1.744-0.189 2.396-0.441 0.544-0.201 1.036-0.521 1.44-0.937 0.449-0.448 0.717-0.865 0.939-1.44 0.253-0.656 0.395-1.357 0.443-2.4 0.069-1.471 0.077-1.987 0.077-5.371 0-3.299-0.009-3.837-0.077-5.372-0.049-1.043-0.191-1.747-0.443-2.397-0.201-0.544-0.521-1.036-0.937-1.44-0.403-0.417-0.896-0.738-1.44-0.939-0.653-0.253-1.355-0.393-2.397-0.441-1.471-0.069-1.985-0.077-5.372-0.077zM16 2.667c3.623 0 4.075 0.013 5.497 0.080 1.419 0.067 2.387 0.289 3.236 0.62 0.88 0.339 1.621 0.797 2.363 1.537 0.678 0.666 1.203 1.473 1.537 2.363 0.329 0.849 0.553 1.817 0.62 3.237 0.063 1.421 0.080 1.873 0.080 5.496s-0.013 4.075-0.080 5.496c-0.067 1.421-0.291 2.387-0.62 3.237-0.334 0.89-0.859 1.696-1.537 2.363-0.666 0.678-1.473 1.203-2.363 1.537-0.849 0.329-1.817 0.553-3.236 0.62-1.423 0.063-1.875 0.080-5.497 0.080s-4.075-0.013-5.497-0.080c-1.419-0.067-2.385-0.291-3.236-0.62-0.89-0.334-1.696-0.859-2.363-1.537-0.678-0.666-1.203-1.473-1.537-2.363-0.331-0.849-0.553-1.817-0.62-3.237-0.064-1.421-0.080-1.873-0.080-5.496s0.013-4.075 0.080-5.496c0.067-1.421 0.289-2.387 0.62-3.237 0.334-0.89 0.859-1.696 1.537-2.363 0.666-0.678 1.473-1.203 2.363-1.537 0.849-0.331 1.816-0.553 3.236-0.62 1.424-0.063 1.876-0.080 5.499-0.080z"></path>
</symbol>
<symbol id="icon-mob-dots" viewBox="0 0 179 32">
<path d="M32 16c0 8.837-7.163 16-16 16s-16-7.163-16-16c0-8.837 7.163-16 16-16s16 7.163 16 16z"></path>
<path d="M81.067 16c0 8.837-7.163 16-16 16s-16-7.163-16-16c0-8.837 7.163-16 16-16s16 7.163 16 16z"></path>
<path d="M130.133 16c0 8.837-7.163 16-16 16s-16-7.163-16-16c0-8.837 7.163-16 16-16s16 7.163 16 16z"></path>
<path d="M179.2 16c0 8.837-7.163 16-16 16s-16-7.163-16-16c0-8.837 7.163-16 16-16s16 7.163 16 16z"></path>
</symbol>
<symbol id="icon-mob-inf" viewBox="0 0 32 32">
<path d="M8.534 8.909c-0.905-0.001-1.8 0.175-2.636 0.52s-1.597 0.851-2.237 1.49-1.148 1.398-1.496 2.233c-0.347 0.835-0.527 1.73-0.528 2.635v0.001c0.001 0.905 0.181 1.8 0.528 2.635s0.855 1.594 1.496 2.233c0.641 0.639 1.401 1.145 2.237 1.49s1.732 0.521 2.636 0.52c2.475 0 4.345-1.735 5.582-3.384 0.609-0.811 1.071-1.614 1.389-2.227 0.319 0.613 0.779 1.417 1.389 2.227 1.24 1.649 3.117 3.384 5.601 3.384 0.904 0.001 1.799-0.175 2.635-0.52s1.597-0.851 2.237-1.49c0.64-0.639 1.15-1.398 1.497-2.233s0.526-1.73 0.527-2.635v-0.001c-0.001-0.904-0.18-1.8-0.527-2.635s-0.857-1.594-1.497-2.233-1.401-1.145-2.237-1.49c-0.836-0.345-1.731-0.521-2.635-0.52h-0.001c-2.483 0.001-4.359 1.735-5.599 3.384-0.61 0.811-1.070 1.614-1.389 2.227-0.319-0.613-0.78-1.415-1.389-2.226-1.238-1.648-3.107-3.385-5.582-3.385zM8.533 10h0.001c1.955 0 3.57 1.431 4.71 2.949 1.064 1.417 1.562 2.656 1.638 2.84-0.076 0.183-0.574 1.421-1.638 2.838-1.14 1.518-2.755 2.949-4.71 2.949h-0.001c-0.761 0.001-1.515-0.147-2.219-0.438s-1.343-0.717-1.882-1.254c-0.539-0.538-0.968-1.176-1.26-1.879s-0.443-1.456-0.445-2.217c0.001-0.761 0.152-1.513 0.445-2.216s0.721-1.342 1.26-1.879 1.178-0.964 1.882-1.254c0.704-0.29 1.457-0.439 2.219-0.438zM22.496 10c0.761-0.001 1.515 0.147 2.219 0.438s1.344 0.717 1.884 1.254 0.966 1.176 1.259 1.879c0.292 0.702 0.443 1.455 0.445 2.216-0.001 0.761-0.152 1.514-0.445 2.217s-0.719 1.342-1.259 1.879c-0.539 0.538-1.18 0.964-1.884 1.254s-1.457 0.439-2.219 0.438c-1.967 0-3.586-1.431-4.729-2.949-1.066-1.417-1.562-2.654-1.638-2.838 0.076-0.184 0.572-1.423 1.638-2.84 1.142-1.518 2.762-2.949 4.729-2.949z"></path>
</symbol>
<symbol id="icon-mob-minus" viewBox="0 0 32 32">
<path d="M24 21.333h-16c-2.205 0-4-1.795-4-4s1.795-4 4-4h16c2.205 0 4 1.795 4 4s-1.795 4-4 4zM8 16c-0.735 0-1.333 0.599-1.333 1.333s0.599 1.333 1.333 1.333h16c0.735 0 1.333-0.599 1.333-1.333s-0.599-1.333-1.333-1.333h-16z"></path>
</symbol>
<symbol id="icon-mob-plus" viewBox="0 0 32 32">
<path d="M16 28c-2.205 0-4-1.795-4-4l0.071-4.071-4.047 0.071c-2.229 0-4.024-1.795-4.024-4s1.795-4 4-4l4.071-0.072-0.071-3.904c0-2.229 1.795-4.024 4-4.024s4 1.795 4 4l0.073 3.928 3.951 0.072c2.181 0 3.976 1.795 3.976 4s-1.795 4-4 4l-3.927-0.071-0.073 4.095c0 2.181-1.795 3.976-4 3.976zM14.667 17.333v6.691c0 0.711 0.599 1.309 1.333 1.309s1.333-0.599 1.333-1.333v-6.667h6.691c0.711 0 1.309-0.599 1.309-1.333s-0.599-1.333-1.333-1.333h-6.667v-6.667c0-0.759-0.599-1.333-1.333-1.333s-1.333 0.599-1.333 1.333v6.667h-6.667c-0.759 0-1.333 0.599-1.333 1.333s0.599 1.333 1.333 1.333h6.667z"></path>
</symbol>
<symbol id="icon-arrowLeft" viewBox="0 0 30 32">
<path stroke-linejoin="round" stroke-linecap="round" stroke-miterlimit="4" stroke-width="3.0118" d="M18.824 23.529l-7.529-7.529 7.529-7.529"></path>
</symbol>
</defs>
</svg>
